<mxfile host="app.diagrams.net" modified="2024-03-17T14:56:48.206Z" agent="Mozilla/5.0 (Windows NT 10.0; Win64; x64) AppleWebKit/537.36 (KHTML, like Gecko) Chrome/122.0.0.0 Safari/537.36" etag="jm3Rv2qJJbW2czh6PoAX" version="24.0.7" type="github">
  <diagram name="Page-1" id="F65d3FjUyygsBpoTpWU9">
    <mxGraphModel dx="1674" dy="772" grid="1" gridSize="10" guides="1" tooltips="1" connect="1" arrows="1" fold="1" page="1" pageScale="1" pageWidth="850" pageHeight="1100" math="1" shadow="0">
      <root>
        <mxCell id="0" />
        <mxCell id="1" parent="0" />
        <mxCell id="85L4wZrttoMrRqJbIdcs-1" value="" style="rounded=0;whiteSpace=wrap;html=1;" parent="1" vertex="1">
          <mxGeometry x="140" y="90" width="290" height="230" as="geometry" />
        </mxCell>
        <mxCell id="85L4wZrttoMrRqJbIdcs-2" value="&lt;b&gt;&lt;font style=&quot;font-size: 14px;&quot;&gt;System&lt;/font&gt;&lt;/b&gt;" style="rounded=0;whiteSpace=wrap;html=1;" parent="1" vertex="1">
          <mxGeometry x="600" y="130" width="120" height="60" as="geometry" />
        </mxCell>
        <mxCell id="85L4wZrttoMrRqJbIdcs-8" value="" style="endArrow=classic;html=1;rounded=0;exitX=1;exitY=0.5;exitDx=0;exitDy=0;" parent="1" source="85L4wZrttoMrRqJbIdcs-2" edge="1">
          <mxGeometry width="50" height="50" relative="1" as="geometry">
            <mxPoint x="760" y="160" as="sourcePoint" />
            <mxPoint x="700" y="280" as="targetPoint" />
            <Array as="points">
              <mxPoint x="760" y="160" />
              <mxPoint x="760" y="220" />
              <mxPoint x="760" y="280" />
            </Array>
          </mxGeometry>
        </mxCell>
        <mxCell id="85L4wZrttoMrRqJbIdcs-10" style="edgeStyle=orthogonalEdgeStyle;rounded=0;orthogonalLoop=1;jettySize=auto;html=1;exitX=0;exitY=0.5;exitDx=0;exitDy=0;entryX=1.009;entryY=0.82;entryDx=0;entryDy=0;entryPerimeter=0;" parent="1" source="85L4wZrttoMrRqJbIdcs-9" target="85L4wZrttoMrRqJbIdcs-1" edge="1">
          <mxGeometry relative="1" as="geometry">
            <mxPoint x="440" y="280" as="targetPoint" />
            <Array as="points">
              <mxPoint x="600" y="279" />
            </Array>
          </mxGeometry>
        </mxCell>
        <mxCell id="85L4wZrttoMrRqJbIdcs-9" value="&lt;font style=&quot;font-size: 14px;&quot;&gt;&lt;b&gt;State estimator&lt;/b&gt;&lt;/font&gt;" style="rounded=0;whiteSpace=wrap;html=1;" parent="1" vertex="1">
          <mxGeometry x="600" y="250" width="100" height="60" as="geometry" />
        </mxCell>
        <mxCell id="85L4wZrttoMrRqJbIdcs-12" value="&lt;font size=&quot;3&quot;&gt;&lt;b&gt;$$y_k$$&lt;/b&gt;&lt;/font&gt;" style="text;html=1;strokeColor=none;fillColor=none;align=center;verticalAlign=middle;whiteSpace=wrap;rounded=0;" parent="1" vertex="1">
          <mxGeometry x="710" y="130" width="60" height="30" as="geometry" />
        </mxCell>
        <mxCell id="85L4wZrttoMrRqJbIdcs-13" value="&lt;font size=&quot;3&quot;&gt;&lt;b&gt;$$x_{k+1}$$&lt;/b&gt;&lt;/font&gt;" style="text;html=1;strokeColor=none;fillColor=none;align=center;verticalAlign=middle;whiteSpace=wrap;rounded=0;" parent="1" vertex="1">
          <mxGeometry x="540" y="250" width="60" height="30" as="geometry" />
        </mxCell>
        <mxCell id="85L4wZrttoMrRqJbIdcs-14" value="" style="endArrow=classic;html=1;rounded=0;entryX=0;entryY=0.5;entryDx=0;entryDy=0;" parent="1" target="85L4wZrttoMrRqJbIdcs-2" edge="1">
          <mxGeometry width="50" height="50" relative="1" as="geometry">
            <mxPoint x="430" y="160" as="sourcePoint" />
            <mxPoint x="480" y="110" as="targetPoint" />
            <Array as="points" />
          </mxGeometry>
        </mxCell>
        <mxCell id="85L4wZrttoMrRqJbIdcs-15" value="&lt;b style=&quot;border-color: var(--border-color); font-size: medium;&quot;&gt;$$u^*(0|t_k)=u^*_{k}$$&lt;/b&gt;" style="text;html=1;strokeColor=none;fillColor=none;align=center;verticalAlign=middle;whiteSpace=wrap;rounded=0;" parent="1" vertex="1">
          <mxGeometry x="460" y="130" width="60" height="30" as="geometry" />
        </mxCell>
        <mxCell id="85L4wZrttoMrRqJbIdcs-17" value="&lt;font style=&quot;font-size: 14px;&quot;&gt;&lt;b&gt;System&lt;br&gt;&lt;/b&gt;&lt;/font&gt;" style="rounded=0;whiteSpace=wrap;html=1;" parent="1" vertex="1">
          <mxGeometry x="300" y="235" width="120" height="60" as="geometry" />
        </mxCell>
        <mxCell id="85L4wZrttoMrRqJbIdcs-18" value="&lt;b&gt;Constraints&lt;/b&gt;" style="rounded=0;whiteSpace=wrap;html=1;" parent="1" vertex="1">
          <mxGeometry x="150" y="235" width="120" height="60" as="geometry" />
        </mxCell>
        <mxCell id="85L4wZrttoMrRqJbIdcs-19" value="&lt;b&gt;Dynamic Optimizer&lt;/b&gt;" style="rounded=0;whiteSpace=wrap;html=1;" parent="1" vertex="1">
          <mxGeometry x="225" y="120" width="120" height="60" as="geometry" />
        </mxCell>
        <mxCell id="85L4wZrttoMrRqJbIdcs-20" value="" style="endArrow=classic;startArrow=classic;html=1;rounded=0;entryX=0.5;entryY=1;entryDx=0;entryDy=0;" parent="1" target="85L4wZrttoMrRqJbIdcs-19" edge="1">
          <mxGeometry width="50" height="50" relative="1" as="geometry">
            <mxPoint x="225" y="235" as="sourcePoint" />
            <mxPoint x="275" y="185" as="targetPoint" />
          </mxGeometry>
        </mxCell>
        <mxCell id="85L4wZrttoMrRqJbIdcs-21" value="" style="endArrow=classic;startArrow=classic;html=1;rounded=0;exitX=0.5;exitY=0;exitDx=0;exitDy=0;entryX=0.5;entryY=1;entryDx=0;entryDy=0;" parent="1" source="85L4wZrttoMrRqJbIdcs-17" target="85L4wZrttoMrRqJbIdcs-19" edge="1">
          <mxGeometry width="50" height="50" relative="1" as="geometry">
            <mxPoint x="240" y="230" as="sourcePoint" />
            <mxPoint x="280" y="180" as="targetPoint" />
          </mxGeometry>
        </mxCell>
        <mxCell id="85L4wZrttoMrRqJbIdcs-22" value="" style="endArrow=classic;startArrow=classic;html=1;rounded=0;entryX=0;entryY=0.5;entryDx=0;entryDy=0;exitX=1;exitY=0.5;exitDx=0;exitDy=0;" parent="1" source="85L4wZrttoMrRqJbIdcs-18" target="85L4wZrttoMrRqJbIdcs-17" edge="1">
          <mxGeometry width="50" height="50" relative="1" as="geometry">
            <mxPoint x="270" y="270" as="sourcePoint" />
            <mxPoint x="320" y="220" as="targetPoint" />
          </mxGeometry>
        </mxCell>
        <mxCell id="85L4wZrttoMrRqJbIdcs-23" value="&lt;b&gt;$$OCP_N(x)$$&lt;/b&gt;" style="text;html=1;strokeColor=none;fillColor=none;align=center;verticalAlign=middle;whiteSpace=wrap;rounded=0;" parent="1" vertex="1">
          <mxGeometry x="370" y="90" width="60" height="30" as="geometry" />
        </mxCell>
      </root>
    </mxGraphModel>
  </diagram>
</mxfile>
